<svg width="88" height="25" viewBox="0 0 88 25" fill="none" xmlns="http://www.w3.org/2000/svg">
<path d="M31.6883 6.65598L25.5123 24H19.6243L16.3603 14.56L12.9683 24H7.0803L0.904297 6.65598H6.6643L10.2163 17.152L13.8963 6.65598H19.0803L22.6643 17.248L26.3443 6.65598H31.6883Z" fill="white"/>
<path d="M50.8053 15.36C50.8053 15.4026 50.7733 15.904 50.7093 16.864H38.1013C38.3573 17.76 38.848 18.4533 39.5733 18.944C40.32 19.4133 41.248 19.648 42.3573 19.648C43.1893 19.648 43.904 19.5306 44.5013 19.296C45.12 19.0613 45.7386 18.6773 46.3573 18.144L49.5573 21.472C47.872 23.3493 45.408 24.288 42.1653 24.288C40.1386 24.288 38.3573 23.904 36.8213 23.136C35.2853 22.368 34.0906 21.3013 33.2373 19.936C32.4053 18.5707 31.9893 17.024 31.9893 15.296C31.9893 13.5893 32.3946 12.064 33.2053 10.72C34.0373 9.35465 35.1786 8.28798 36.6293 7.51998C38.08 6.75198 39.712 6.36798 41.5253 6.36798C43.2533 6.36798 44.8213 6.73065 46.2293 7.45598C47.6373 8.15998 48.7466 9.19465 49.5573 10.56C50.3893 11.904 50.8053 13.504 50.8053 15.36ZM41.5573 10.688C40.6186 10.688 39.8293 10.9546 39.1893 11.488C38.5706 12.0213 38.176 12.7466 38.0053 13.664H45.1093C44.9386 12.7466 44.5333 12.0213 43.8933 11.488C43.2746 10.9546 42.496 10.688 41.5573 10.688Z" fill="white"/>
<path d="M59.4005 8.73598C60.0192 7.94665 60.8192 7.35998 61.8005 6.97598C62.8032 6.57065 63.9445 6.36798 65.2245 6.36798V11.84C64.6699 11.776 64.2112 11.744 63.8485 11.744C62.5472 11.744 61.5232 12.096 60.7766 12.8C60.0512 13.504 59.6885 14.5813 59.6885 16.032V24H53.6085V6.65598H59.4005V8.73598Z" fill="white"/>
<path d="M75.6055 17.92L73.8135 19.744V24H67.7336V0.255981H73.8135V12.704L80.0215 6.65598H87.2215L80.0215 14.08L87.8296 24H80.4696L75.6055 17.92Z" fill="white"/>
</svg>
